<svg id="Calque_1_-_copie_10" data-name="Calque 1 - copie 10" xmlns="http://www.w3.org/2000/svg" viewBox="0 0 2560 872.36"><defs><style>.cls-1{fill:#8dc63f;}.cls-2{fill:#a97c50;}.cls-3{fill:#006838;}.cls-4{fill:#00421e;}</style></defs><title>grosseroche</title><path class="cls-1" d="M0,335.28L235.61,99.36,581.17,360,706.82,177.31l503.11,388.13s316.59-170.62,324.16-175.17,427.85-83.17,427.85-83.17l117.61-178.95,181.77,191.06L2560,675.12V848H0V335.28Z" transform="translate(0 24.36)"/><rect class="cls-2" x="1861.55" y="578.24" width="63.53" height="132.81"/><polygon class="cls-3" points="1778.11 433.74 1897.81 218.59 2011.44 418.59 1943.26 423.14 2061.44 501.93 1984.17 501.93 2137.2 567.08 1694.78 589.8 1773.56 532.23 1715.99 527.68 1828.11 433.74 1778.11 433.74"/><rect class="cls-2" x="484.25" y="468.74" width="63.53" height="132.81"/><polygon class="cls-4" points="400.81 324.24 520.51 109.09 634.14 309.09 565.96 313.64 684.14 392.42 606.87 392.42 759.9 457.58 317.48 480.3 396.26 422.73 338.69 418.18 450.81 324.24 400.81 324.24"/><rect class="cls-2" x="285.71" y="577.83" width="63.53" height="132.81"/><polygon class="cls-3" points="202.27 433.33 321.97 218.18 435.61 418.18 367.42 422.73 485.61 501.51 408.33 501.51 561.36 566.67 118.94 589.39 197.73 531.82 140.15 527.27 252.27 433.33 202.27 433.33"/><rect class="cls-2" x="1013.04" y="359.65" width="63.53" height="132.81"/><polygon class="cls-4" points="929.6 215.15 1049.3 0 1162.93 200 1094.75 204.54 1212.93 283.33 1135.66 283.33 1288.69 348.49 846.26 371.21 925.05 313.64 867.48 309.09 979.6 215.15 929.6 215.15"/><rect class="cls-2" x="615.96" y="616.33" width="63.53" height="132.81"/><polygon class="cls-3" points="532.52 471.83 652.22 256.68 765.86 456.68 697.67 461.23 815.86 540.01 738.58 540.01 891.61 605.17 449.19 627.89 527.98 570.32 470.4 565.77 582.52 471.83 532.52 471.83"/><rect class="cls-2" x="814.5" y="468.74" width="63.53" height="132.81"/><polygon class="cls-3" points="731.06 324.24 850.76 109.09 964.39 309.09 896.21 313.64 1014.39 392.42 937.12 392.42 1090.15 457.58 647.73 480.3 726.51 422.73 668.94 418.18 781.06 324.24 731.06 324.24"/><rect class="cls-2" x="1510.06" y="372.82" width="63.53" height="132.81"/><polygon class="cls-4" points="1426.62 228.33 1546.32 13.17 1659.95 213.17 1591.77 217.72 1709.95 296.51 1632.68 296.51 1785.71 361.66 1343.29 384.39 1422.07 326.81 1364.5 322.26 1476.62 228.33 1426.62 228.33"/><rect class="cls-2" x="859.85" y="696.59" width="63.53" height="132.81"/><polygon class="cls-3" points="776.41 552.09 896.11 336.94 1009.74 536.94 941.56 541.49 1059.74 620.27 982.47 620.27 1135.5 685.43 693.08 708.15 771.87 650.58 714.29 646.03 826.41 552.09 776.41 552.09"/><rect class="cls-2" x="1320.66" y="473.06" width="63.53" height="132.81"/><polygon class="cls-4" points="1237.23 328.57 1356.92 113.42 1470.56 313.42 1402.38 317.96 1520.56 396.75 1443.29 396.75 1596.32 461.9 1153.89 484.63 1232.68 427.05 1175.11 422.51 1287.23 328.57 1237.23 328.57"/><rect class="cls-2" x="1270.51" y="700.33" width="63.53" height="132.81"/><polygon class="cls-3" points="1187.07 555.84 1306.77 340.68 1420.4 540.68 1352.22 545.23 1470.4 624.02 1393.13 624.02 1546.16 689.17 1103.74 711.9 1182.52 654.32 1124.95 649.77 1237.07 555.84 1187.07 555.84"/><rect class="cls-2" x="1146.4" y="575.34" width="63.53" height="132.81"/><polygon class="cls-3" points="1062.96 430.85 1182.65 215.7 1296.29 415.7 1228.11 420.24 1346.29 499.03 1269.02 499.03 1422.05 564.18 979.62 586.91 1058.41 529.34 1000.84 524.79 1112.96 430.85 1062.96 430.85"/><rect class="cls-2" x="2225.21" y="375.71" width="63.53" height="132.81"/><polygon class="cls-4" points="2141.77 231.22 2261.47 16.07 2375.11 216.07 2306.92 220.61 2425.11 299.4 2347.83 299.4 2500.86 364.55 2058.44 387.28 2137.23 329.7 2079.65 325.16 2191.77 231.22 2141.77 231.22"/><rect class="cls-2" x="1575" y="699.48" width="63.53" height="132.81"/><polygon class="cls-3" points="1491.56 554.99 1611.26 339.83 1724.89 539.84 1656.71 544.38 1774.89 623.17 1697.62 623.17 1850.65 688.32 1408.23 711.05 1487.02 653.47 1429.44 648.93 1541.56 554.99 1491.56 554.99"/><rect class="cls-2" x="2035.82" y="475.96" width="63.53" height="132.81"/><polygon class="cls-4" points="1952.38 331.46 2072.07 116.31 2185.71 316.31 2117.53 320.86 2235.71 399.64 2158.44 399.64 2311.47 464.8 1869.04 487.52 1947.83 429.95 1890.26 425.4 2002.38 331.46 1952.38 331.46"/><rect class="cls-2" x="1985.66" y="703.22" width="63.53" height="132.81"/><polygon class="cls-3" points="1902.22 558.73 2021.92 343.58 2135.55 543.58 2067.37 548.12 2185.55 626.91 2108.28 626.91 2261.31 692.06 1818.89 714.79 1897.67 657.21 1840.1 652.67 1952.22 558.73 1902.22 558.73"/></svg>