<?xml version="1.0" encoding="utf-8"?>
<!-- Generator: Adobe Illustrator 19.2.0, SVG Export Plug-In . SVG Version: 6.00 Build 0)  -->
<svg version="1.1" id="Calque_1" xmlns="http://www.w3.org/2000/svg" xmlns:xlink="http://www.w3.org/1999/xlink" x="0px" y="0px"
	 viewBox="0 0 257.6 264.4" style="enable-background:new 0 0 257.6 264.4;" xml:space="preserve">
<style type="text/css">
	.st0{fill:#F0F2B5;}
</style>
<title>lol</title>
<path class="st0" d="M65,113c5.2,25.9,15-31,33-28s79-2.6,80,13.7s22,21.3,31,6.3s18-4.1,25,9s29,28,0,29s-60-10.6-71-10.8
	s-3.4-8.1-6.2,10.8S185,184,151,170s-60-6-56-27s25-35,4-21s-25,32-34,34s-42-8.2-36-26.6s9-28.4,9-28.4S61,93,65,113z"/>
</svg>
