<svg id="Calque_1" data-name="Calque 1" xmlns="http://www.w3.org/2000/svg" viewBox="0 0 2236.36 394"><defs><style>.cls-1{fill:#162d1c;}.cls-2{fill:#3b4639;}.cls-3{fill:#0b1709;}</style></defs><title>rock2</title><polygon class="cls-1" points="0 394 248.49 0 533.33 221.21 713.64 161 1121.21 274.24 1287.88 83.33 1601.52 346.97 1886.36 287.88 2236.36 394 0 394"/><polygon class="cls-2" points="248.49 0 328.79 394 93.94 394 248.49 0"/><polygon class="cls-2" points="533.33 221.21 471.21 394 712.12 394 533.33 221.21"/><polygon class="cls-2" points="1121.21 274.24 1013.64 394 1251.52 394 1287.88 83.33 1121.21 274.24"/><polygon class="cls-2" points="1601.52 346.97 1715.15 394 1774.9 311 1601.52 346.97"/><polygon class="cls-3" points="248.49 0 410.61 394 328.79 394 248.49 0"/><polygon class="cls-3" points="713.64 161 579.58 265.9 533.33 221.21 713.64 161"/><polygon class="cls-3" points="1287.88 83.33 1398.48 394 1251.52 394 1287.88 83.33"/><polygon class="cls-3" points="1715.15 394 1886.36 287.88 1767.63 312.51 1715.15 394"/></svg>