<svg id="Calque_1" data-name="Calque 1" xmlns="http://www.w3.org/2000/svg" viewBox="0 0 2372.73 384.85"><defs><style>.cls-1{fill:#603913;}.cls-2{fill:#3c2415;}.cls-3{fill:#c49a6c;}</style></defs><title>rock</title><polygon class="cls-1" points="0 250 171.21 13.64 209.09 72.73 348.49 13.64 515.15 192.42 540.91 98.48 695.46 231.82 0 250"/><polygon class="cls-1" points="1113.64 351.51 1207.58 122.73 1246.97 209.09 1346.97 75.76 1706.06 271.21 1772.73 213.64 2027.27 331.82 2204.55 0 2372.73 384.85 1113.64 351.51"/><polygon class="cls-2" points="0 250 189.39 42 210.54 244.5 0 250"/><polygon class="cls-2" points="348.49 13.64 424.27 238.91 550.02 235.62 515.15 192.42 348.49 13.64"/><polygon class="cls-2" points="1346.97 75.76 1695.53 366.92 1706.06 271.21 1346.97 75.76"/><polygon class="cls-2" points="1207.58 122.73 1163.56 352.84 1113.64 351.51 1207.58 122.73"/><polygon class="cls-2" points="2204.55 0 2287.86 382.6 2003.05 375.06 2027.27 331.82 2204.55 0"/><polygon class="cls-3" points="348.49 13.64 374.22 240.22 424.27 238.91 348.49 13.64"/><polygon class="cls-3" points="540.91 98.48 532.69 214.15 515.15 192.42 540.91 98.48"/><polyline class="cls-3" points="1246.97 209.09 1339.39 179.18 1346.97 75.76"/><polygon class="cls-3" points="1701.56 312.13 1772.73 213.64 1706.06 271.21 1701.56 312.13"/></svg>